<?xml version="1.0" encoding="utf-8"?>
<!-- Generator: Adobe Illustrator 27.4.1, SVG Export Plug-In . SVG Version: 6.00 Build 0)  -->
<svg version="1.1" id="Layer_1" xmlns="http://www.w3.org/2000/svg" xmlns:xlink="http://www.w3.org/1999/xlink" x="0px" y="0px"
	 viewBox="0 0 16 16" style="enable-background:new 0 0 16 16;" xml:space="preserve">
<style type="text/css">
	.st0{fill:#6FC59E;}
	.st1{filter:url(#Adobe_OpacityMaskFilter);}
	.st2{mask:url(#SVGID_1_);fill:#6FC59E;}
</style>
<path class="st0" d="M0,3v6h2c1.66,0,3-1.34,3-3V3H3v3c0,0.55-0.45,1-1,1V3H0z"/>
<path class="st0" d="M15,11c0-0.55-0.45-1-1-1h-2v4h2c0.55,0,1-0.45,1-1V11z M11,10H4l-3,2l3,2h7V10z M10,11v1H5v-1H10z"/>
<defs>
	<filter id="Adobe_OpacityMaskFilter" filterUnits="userSpaceOnUse" x="6" y="3" width="5" height="6">
		<feFlood  style="flood-color:white;flood-opacity:1" result="back"/>
		<feBlend  in="SourceGraphic" in2="back" mode="normal"/>
	</filter>
</defs>
<mask maskUnits="userSpaceOnUse" x="6" y="3" width="5" height="6" id="SVGID_1_">
	<g class="st1">
		<path d="M9,5v2C8.45,7,8,6.55,8,6S8.45,5,9,5z"/>
	</g>
</mask>
<path class="st2" d="M9,3C7.34,3,6,4.34,6,6s1.34,3,3,3h2V3H9z"/>
<path class="st0" d="M15,3c-1.66,0-3,1.34-3,3v3h2V6c0-0.55,0.45-1,1-1h1V3H15z"/>
</svg>
